<?xml version="1.0" encoding="UTF-8"?>
<svg id="Capa_1" data-name="Capa 1" xmlns="http://www.w3.org/2000/svg" viewBox="0 0 1240.5 1256.14">
  <defs>
    <style>
      .cls-1, .cls-2, .cls-3 {
        fill: #fff;
      }

      .cls-4 {
        fill: #bf2d61;
      }

      .cls-5 {
        fill: #1c8d42;
      }

      .cls-6 {
        fill: #bf2d5f;
      }

      .cls-7 {
        fill: #d88d3a;
      }

      .cls-8 {
        fill: #d78c3a;
      }

      .cls-9 {
        fill: #d78a39;
      }

      .cls-10 {
        fill: #004264;
      }

      .cls-2, .cls-3 {
        stroke: #211915;
        stroke-miterlimit: 10;
      }

      .cls-3 {
        stroke-width: .25px;
      }

      .cls-11 {
        fill: #d88c38;
      }

      .cls-12 {
        fill: #d88d3b;
      }
    </style>
  </defs>
  <g>
    <path class="cls-1" d="M181.53,317.98c4.35,1.73,8.7,3.46,13.05,5.19-4.9,9.96-9.79,19.93-14.69,29.89-18.94-7.74-37.88-15.47-56.82-23.21-2.36-.96-6.46-.51-5.74,1.93.18.59.65,1.03,1.1,1.45,13.04,11.88,26.09,23.75,39.13,35.63,3.91,5.58,5.11,12.97,3.16,19.5s-7.01,12.05-13.34,14.57c-19.54,7.77-42.36-13.04-61.53-4.41,17.07,12.01,34.14,24.03,51.21,36.04-5.22,9.65-10.44,19.31-15.66,28.96-27.67-16.6-54.08-35.29-78.95-55.87-4.42-3.66-9.02-7.72-10.49-13.26-1.27-4.77,0-9.81,1.53-14.51,2.08-6.44,4.89-13.09,10.4-17.04,6.76-4.85,15.88-4.45,24.1-3.15,9.11,1.45,18.08,3.77,26.71,7,6.21,2.32,13.76,4.95,18.94.81-7.44-7.77-16.63-13.62-24.9-20.51s-15.93-15.3-18.61-25.73c-3.66-14.27,4.67-29.56,19.71-30.59,19.49-1.34,38.46,6.13,56.23,13.19,11.83,4.7,23.65,9.41,35.48,14.11Z"/>
    <path class="cls-1" d="M368.27,102.44c5.18,8.48,10.58,16.82,16.19,25.02,6.23,9.11,13.06,19.72,10.12,30.36-3.04,11-15.93,16.83-27.29,15.73s-21.48-7.37-31.08-13.53-19.6-12.56-30.93-13.96c8.91,15.73,17.83,31.47,26.74,47.2.59,1.04,1.2,2.19.99,3.37-.21,1.2-1.21,2.08-2.16,2.84-5.98,4.78-12.51,8.87-19.43,12.15-1.72.82-3.75,1.58-5.46.73-1.13-.56-1.82-1.71-2.45-2.81-12.82-22.11-25.64-44.23-38.46-66.34-3.15-5.43-6.34-10.97-7.71-17.1-2.97-13.26,6-27.61,20.42-26.89,6.8.34,13.14,3.36,19.27,6.32,16.01,7.73,32.02,15.47,48.02,23.2-8.7-15.44-17.4-30.88-26.11-46.32-1.16-2.06-2.36-4.45-1.61-6.69.47-1.41,1.63-2.46,2.77-3.4,5.43-4.44,11.71-7.86,18.39-10.01,1.36-.44,2.8-.83,4.21-.58,2.93.51,4.67,3.46,6.04,6.1,6.11,11.75,12.62,23.3,19.52,34.6Z"/>
    <path class="cls-1" d="M638.45,109.81c-12.59,1.79-25.19,3.57-37.78,5.36-8.46,1.2-17.07,2.4-25.5,1.01-8.43-1.39-16.79-5.8-20.84-13.33-2.17-4.04-2.97-8.66-3.73-13.19-2.84-16.94-5.71-33.94-6.61-51.11-.74-14.07-.76-29.5,14.76-35.59,6.65-2.61,13.98-2.68,21.12-2.71,17.2-.08,34.39-.17,51.59-.25.46,7.49.93,14.97,1.39,22.46.11,1.72.13,3.69-1.12,4.89-1.06,1.01-2.67,1.12-4.13,1.16-11.49.34-22.98.68-34.48,1.02-3.23.1-6.66.25-9.33,2.06s-4.07,5.91-1.96,8.35c1.09,1.26,2.8,1.77,4.43,2.08,13.48,2.5,28.02-5.3,40.71-.13,1.56.64,3.11,1.52,4.02,2.94.98,1.55,1.05,3.49,1.09,5.32.1,4.66.19,9.31.29,13.97.03,1.31.02,2.73-.8,3.75-.92,1.16-2.56,1.4-4.03,1.56-12.31,1.34-24.61,2.68-36.92,4.03-3.17.35-7.15,1.46-7.49,4.63-.42,4.01,5.18,5.39,9.21,5.22,12.99-.54,25.99-1.08,38.98-1.62,1.5-.06,3.14-.08,4.33.82,1.18.89,1.61,2.43,1.93,3.87,1.69,7.65,2.14,15.57,1.34,23.36l-.48.07Z"/>
    <path class="cls-1" d="M241.95,206.5c.65.81,1.17,1.71,1.31,2.73.31,2.33-1.43,4.39-3.06,6.09-6.98,7.32-13.97,14.64-20.95,21.96-2.19,2.3-4.47,4.76-5.16,7.86s.99,6.95,4.13,7.42c2.65.4,4.99-1.62,6.91-3.49,10.91-10.63,21.83-21.26,32.74-31.9,5.64,5.52,11.28,11.05,16.92,16.57,1.04,1.02,2.15,2.17,2.29,3.63.17,1.79-1.17,3.33-2.42,4.62-12.29,12.72-24.59,25.44-36.88,38.16-4.11,4.26-8.51,8.69-14.23,10.24-7.94,2.16-16.22-1.8-22.97-6.5-10.58-7.36-19.57-16.72-28.49-26.02-7.98-8.32-15.98-16.67-22.94-25.86-1.95-2.58-3.87-5.37-4.26-8.57-.36-3.03.7-6.05,1.91-8.85,9.34-21.76,28.82-36.48,45.66-52.26,1.22-1.15,2.65-2.37,4.33-2.27,1.35.08,2.48,1.02,3.5,1.92,4.5,3.95,9.01,7.9,13.51,11.85,1.02.89,2.09,1.86,2.48,3.16.59,1.94-.49,3.97-1.63,5.64-7.28,10.6-18.7,17.55-27.4,27.02-1.86,2.03-3.65,4.27-4.26,6.95s.3,5.89,2.74,7.16c3.81,1.99,8.07-1.56,10.89-4.8,6.55-7.51,13.1-15.01,19.65-22.52,1.61-1.84,3.48-3.82,5.91-3.98,1.84-.12,3.57.85,5.13,1.84,4.88,3.11,9.41,6.78,13.46,10.91.4.41.81.84,1.17,1.29Z"/>
    <path class="cls-1" d="M477.92,1203.22c.45,1.21,1.1,2.33,2.01,3.27,6.2-11.63,12.4-23.27,18.59-34.9,4.6-8.63,10.75-18.35,20.49-19.2,10.31-.9,18.69,9.4,20.14,19.65s-1.89,20.48-4,30.61c-2.6,12.51-3.32,25.41-2.15,38.14.25,2.65.43,5.71-1.48,7.57-2.16,2.09-5.68,1.41-8.57.6-3.28-.93-6.57-1.85-9.85-2.78-1.28-.36-2.65-.78-3.48-1.82-.91-1.15-.94-2.74-.88-4.21.12-2.87.39-5.73.81-8.57,1.93-12.92,7.03-25.64,5.57-38.62-.25-2.25-1.82-5.16-3.92-4.32-.81.33-1.3,1.14-1.72,1.91-6.44,11.72-11.16,24.59-19.96,34.66-3.01,3.45-6.57,6.58-10.86,8.17s-9.43,1.42-13.12-1.28c-4.22-3.09-5.73-8.66-6.31-13.86-1.52-13.78,1.58-27.79-.13-41.55-.26-2.11-1.8-4.88-3.72-3.96-.79.38-1.17,1.28-1.48,2.11-5.81,15.49-11.61,30.99-17.42,46.48-.58,1.54-1.24,3.19-2.65,4.05-1.75,1.06-3.98.54-5.95-.03-3.14-.9-6.28-1.79-9.42-2.69-1.29-.37-2.67-.79-3.52-1.82-1.56-1.88-.68-4.7.28-6.96,7.97-18.79,15.94-37.59,23.91-56.38,5.11-12.06,22.81-28.31,35.03-13.23,4.78,5.91,3.96,14.38,3.27,21.95-.9,9.93-1.12,19.92-.66,29.88.11,2.39.32,4.92,1.14,7.13Z"/>
    <path class="cls-1" d="M493.71,39.87c-1.09,1.84-2.62,3.36-4.6,4.22-5.38,2.33-12.88-.36-16.65,4.13-2.56,3.04-1.67,7.57-.65,11.41,5.53,20.73,11.07,41.47,16.6,62.2.67,2.52,1.23,5.54-.54,7.45-.87.94-2.13,1.39-3.34,1.8-4.97,1.7-9.94,3.39-14.92,5.09-2.06.7-4.21,1.42-6.38,1.18-6.25-.7-8.83-8.2-10.17-14.35-4.22-19.33-9.76-38.37-16.59-56.94-.69-1.88-1.53-3.91-3.29-4.87-1.95-1.06-4.35-.43-6.47.21-5.34,1.63-10.69,3.25-16.03,4.88-1.49.45-3.09.91-4.59.49-1.54-.43-2.69-1.71-3.61-3.03-9.81-14.14-.6-27.03,13.11-32.55,10.35-4.17,21.07-7.35,31.86-10.21,11.6-3.07,23.3-5.77,35.07-8.09,1.28-.25,2.62-.5,3.87-.13,2.14.63,3.37,2.81,4.37,4.8,2.25,4.46,4.55,9.07,4.85,14.06.17,2.83-.47,5.83-1.9,8.25Z"/>
    <path class="cls-1" d="M1151.56,789.01c7.63,2.06,14.21,8.35,14.91,16.18,4.86-.04,8.97-3.54,13.64-4.89,9.98-2.89,20.59,5.07,24.04,14.87,3.45,9.8,1.48,20.64-1.3,30.65-2.8,10.07-6.39,19.94-11.01,29.32-.54,1.09-1.18,2.26-2.32,2.7-1.06.4-2.24.05-3.31-.31-24.73-8.26-49.28-17.03-73.64-26.31-1.36-.52-2.81-1.11-3.58-2.34-.72-1.15-.68-2.6-.59-3.95,1.38-20.78,11.34-56.26,37.55-56.65,1.88-.03,3.77.22,5.6.72ZM1150.79,832.08c1.32-2.28,2.43-4.67,3-7.24,1.03-4.57.02-9.92-3.67-12.8-10.68-8.35-17.46,11.81-18.67,18.76-.21,1.23-.35,2.6.35,3.63,1.41,2.09,4.1,2.28,6.41,3.29,2.08.91,4.26,2.38,6.48,1.93,1.22-.24,2.04-1.35,2.74-2.38,1.16-1.7,2.33-3.42,3.36-5.2ZM1184.7,824.4c-.99-1.07-2.25-1.87-3.67-2.21-9.14-2.17-13.64,15.32-15.1,21.41-.18.76-.34,1.58-.06,2.3.35.89,1.28,1.39,2.14,1.79,4.02,1.88,8.31,3.19,12.7,3.89.44.07.93.13,1.32-.1.48-.28.64-.87.77-1.41,1.1-4.75,2.2-9.51,3.3-14.26.57-2.45,1.14-5,.63-7.46-.3-1.46-1.02-2.85-2.03-3.95Z"/>
    <path class="cls-1" d="M115.04,793.12c.42.58.83,1.18,1.23,1.79,10.75,16.52,9.05,40.02-3.73,55.02-12.79,14.99-35.51,20.42-53.8,13.08-5.39-2.16-10.38-5.31-14.62-9.27-10.27-9.62-15.69-24.2-14.19-38.19,4.39-40.9,61.46-55.23,85.11-22.43ZM97.09,835.36c1.54-2.03,2.72-4.36,3.65-6.74,2.18-5.59,3.09-11.93,1.03-17.57-1.56-4.29-4.75-7.87-8.49-10.48-15.42-10.77-40.68-4.11-42.26,16.71-.75,9.84,5.42,19.82,14.56,23.55,4.74,1.93,9.99,2.27,15.1,1.94,4.33-.28,8.78-1.07,12.37-3.51,1.57-1.07,2.9-2.41,4.05-3.91Z"/>
    <path class="cls-1" d="M628.62,1167.18c3.99,1.81,7.84,4.29,11.46,7.49,14.61,12.96,19.6,35.62,11.79,53.51-7.81,17.9-27.82,29.65-47.25,27.75s-36.79-17.29-41-36.36c-8.41-38.17,32.66-67.09,64.99-52.4ZM628.24,1193.57c-1.6-2.23-3.55-4.19-5.8-5.77-16.16-11.37-37,.73-38.26,19.69-.58,8.78,3.79,17.81,11.25,22.49,6.9,4.32,16.03,4.69,23.38,1.18,7.89-3.77,13.51-11.92,14.24-20.64.5-5.98-1.31-12.08-4.81-16.94Z"/>
    <path class="cls-1" d="M248.2,1016.56c2.62.06,5.49.97,8.71,3.03,8.83,5.64,16.8,12.64,23.53,20.67,6.54,7.8,12.15,17.87,9.71,27.75-1.84,7.44-7.9,13.08-14.28,17.33-6.02,4.01-13.52,7.26-20.34,4.86-1.47,13.34-5.08,26.44-10.65,38.65-5.69-3.61-11.8-7.74-13.82-14.17-1.5-4.78-.44-9.94.62-14.83,1.05-4.9,2.07-10.07.49-14.82s-6.78-8.68-11.51-7.03c-6.79,2.36-8.42,13.92-15.6,13.72-2.15-.06-4.06-1.3-5.84-2.51-3.87-2.64-8.15-6.49-7.17-11.07.39-1.8,1.57-3.32,2.72-4.77,9.78-12.29,19.76-24.41,29.95-36.36,7.33-8.6,13.55-20.68,23.49-20.45ZM251.19,1044.39c-4.62-.98-8.66,3.5-10.53,8.27-1.47,3.75-.87,8.51,2.23,11.07,1.86,1.54,4.37,2.14,6.19,3.72,1.37,1.19,2.29,2.89,3.87,3.79,2.71,1.54,6.13.12,8.67-1.68,1.94-1.37,3.78-3.06,4.59-5.29,1.02-2.8.21-5.97-1.3-8.54-2.55-4.35-6.86-7.32-11.03-10.15-.91-.62-1.81-1-2.7-1.19Z"/>
    <path class="cls-1" d="M1033.48,997.49c-7.81,8.45-15.62,16.89-23.44,25.34-1.61,1.74-3.31,3.67-3.52,6.04-.35,4.03,3.59,6.97,7.07,9.04,8.83-8.57,18.04-16.74,27.6-24.49,1.21-.98,2.67-2.01,4.18-1.63,1.08.27,1.84,1.2,2.53,2.08,1.68,2.15,3.36,4.31,5.05,6.46.82,1.05,1.67,2.16,1.92,3.47.73,3.71-3.28,6.39-6.46,8.45-6.74,4.37-12.12,10.83-15.19,18.26-1.29,3.11-1.9,7.33.81,9.32,2.5,1.84,6.03.45,8.68-1.18,6.69-4.11,12.6-9.49,17.32-15.78,2.55-3.41,5.54-7.5,9.79-7.34,1.9.07,3.63,1.02,5.29,1.95,3.68,2.07,7.89,5.08,7.49,9.29-.18,1.97-1.4,3.67-2.6,5.24-8.38,10.92-18.43,20.56-29.69,28.48-4.54,3.2-9.67,6.22-15.22,6.01-5.36-.21-10.16-3.45-13.86-7.33s-6.59-8.46-10.17-12.44c-5.78-6.44-13.21-11.17-19.45-17.15-6.25-5.99-11.5-13.99-10.93-22.63,1.1-16.42,19.92-27.45,31.21-36.75,2.02-1.67,4.15-3.39,6.72-3.93,6.53-1.38,11.79,5.09,15.31,10.75-.15.16-.29.32-.44.47Z"/>
    <path class="cls-1" d="M55.23,648.02c-6.34,1.8-14.56,2.57-17.64-3.14-1.8-3.34-.82-7.4-.23-11.15,1.22-7.8.48-15.9-2.14-23.35-.85-2.42-2.59-5.2-5.13-4.9-1.35.16-2.42,1.18-3.31,2.2-6.02,6.94-8.47,16.83-6.39,25.78.38,3.62.76,7.24,1.15,10.85.13,1.23.22,2.62-.56,3.58-.78.95-2.13,1.15-3.35,1.28-3.73.4-7.47.8-11.2,1.2-1.12.12-2.34.22-3.3-.38-1.2-.76-1.54-2.33-1.75-3.74-1.94-13.04-1.81-26.39.38-39.39.86-5.07,2.07-10.2,4.76-14.58,7.15-11.64,22.68-10.58,34.61-10.47,15,.14,29.98,2.17,44.46,6.05,1.82.49,3.72,1.05,5.03,2.41,1.94,2,2.04,5.09,2.02,7.87-.08,14.14-.17,28.28-.25,42.42-.01,2.5-.08,5.16-1.45,7.24-2.67,4.05-8.57,3.85-13.38,3.2-1.26-.17-2.58-.37-3.58-1.15-1.75-1.37-1.84-3.93-1.79-6.15.25-10.42.5-20.85.75-31.27.03-1.13,0-2.4-.8-3.2-.73-.73-1.86-.82-2.9-.86-3.07-.13-6.15-.27-9.22-.4-1.04-.05-2.19-.05-2.96.65-.8.73-.86,1.94-.88,3.03-.13,12.08-.25,24.15-.38,36.23-.19.06-.39.11-.59.17Z"/>
    <path class="cls-1" d="M189.16,941.03c1.58,1.83,2.78,4.02,3.68,6.27.53,1.35.97,2.85.53,4.23-.38,1.19-1.34,2.08-2.27,2.91-7.7,6.86-15.85,13.21-24.38,19.01-4.55,3.09-9.25,6.07-13,10.08s-6.52,9.3-6.24,14.79c.3,5.84,4.03,11.07,8.69,14.59,2.1,1.58,4.5,2.92,7.11,3.13,3.98.32,7.65-1.98,10.92-4.26,10.75-7.49,20.9-15.85,30.31-24.97,3.25-3.15,6.94-6.62,11.47-6.57,6.43.06,10.37,6.87,12.98,12.75.47,1.06.94,2.23.59,3.33-.27.85-.98,1.47-1.66,2.04-14.74,12.45-29.6,24.98-46.44,34.39-4.81,2.69-9.94,5.16-15.44,5.51-7.49.48-14.67-3.03-20.91-7.21-10.81-7.26-20.57-17.97-21.59-30.96-.97-12.27,6.03-23.76,14.06-33.1,8.32-9.68,33.58-38.02,48.29-28.83,1.25.78,2.35,1.76,3.3,2.87Z"/>
    <path class="cls-1" d="M739.55,1210.61c1.31-15.91,3.51-31.72,7.61-47.12,2.02-7.6,8.35-28.78,20.15-23.33,2.76,1.28,4.79,3.7,6.7,6.07,15.15,18.8,28.73,38.81,41.83,59.1,3.53,5.47,6.93,13.08,2.57,17.92-3.29,3.66-9.28,3.22-13.67,1.03-4.4-2.2-8-5.77-12.43-7.9-5.95-2.87-13.21-2.86-19.16.03-5.94,2.89-10.43,8.6-11.85,15.05-.4,1.85-.62,3.85-1.83,5.3-.97,1.16-2.44,1.77-3.85,2.33-2.42.97-4.83,1.94-7.25,2.91-1.74.7-3.62,1.41-5.45.98-4.12-.96-4.86-6.45-4.68-10.68.31-7.23.72-14.47,1.31-21.69ZM765.22,1169.44c-2.1.04-3.08,3.51-1.75,12.98.7,4.99,1.94,10.08.87,15.01,5.8-3.53,14.63.61,19.48-4.14.29-.29-13.07-23.96-18.61-23.86Z"/>
    <path class="cls-1" d="M1238.23,668.55c-.61,2.79-1.34,5.55-2.19,8.27-.41,1.29-.9,2.66-1.99,3.47-1.13.83-2.63.86-4.03.87-18.62.04-37.24.08-55.86.12-5.63.01-11.64-.09-16.31-3.24-4.54-3.07-6.9-8.45-8.51-13.68-2.47-8.06-8.43-65.58,13.35-51.1,4.32,2.88,5.51,8.6,6.34,13.72,1.36,8.42,2.71,16.83,4.07,25.25.45,2.81,1.55,6.28,4.38,6.59,3.68.41,5.03-4.64,5.25-8.33.55-9.27,2.74-18.43,6.45-26.94.46-1.06.98-2.16,1.9-2.87,1.92-1.49,4.9-.65,6.53,1.16s2.24,4.28,2.8,6.65c2.12,8.94,4.23,17.89,6.35,26.83.46,1.93,1.09,4.1,2.87,4.98,1.82.9,4.11-.04,5.39-1.61s1.79-3.62,2.26-5.59c1.93-8.04,3.86-16.09,5.78-24.13,1.18-4.93,4.13-11.11,9.12-10.25,3.76.65,5.46,5.01,6.24,8.75,2.84,13.5,2.75,27.61-.19,41.09Z"/>
    <path class="cls-1" d="M407.08,1121.34c5.36,5.92,8.52,13.69,7.56,21.56-6.8,4.74-17.05,3.56-22.6-2.59-2.68-2.98-4.27-6.82-6.98-9.77s-7.41-4.83-10.71-2.56c-3.28,2.26-3.2,7.4-1.04,10.74s5.74,5.44,8.97,7.77c10.28,7.41,18.27,19.92,15.69,32.32-2.64,12.67-16.1,21.19-29.04,20.86-12.93-.33-24.82-7.97-33.15-17.87-2.87-3.41-5.48-7.3-6.03-11.73s1.53-9.44,5.7-11.01c4.26-1.61,9.06.77,12.31,3.96,3.26,3.19,5.66,7.21,9.19,10.1,5.29,4.33,12.94,5.55,19.32,3.1,1.68-2.91.65-6.76-1.49-9.36s-5.17-4.26-8.03-6.02c-8.69-5.32-16.91-12.64-19.64-22.45-7.63-27.37,30.96-32.97,48.75-25.17,4.23,1.86,8.1,4.68,11.22,8.13Z"/>
    <path class="cls-1" d="M1082.85,945.59c-3.82-1.87-8.68-.27-11.52,2.89s-3.97,7.53-4.26,11.77c-.13,1.91.02,4.12,1.54,5.28,2.05,1.55,4.96.13,7-1.42,9.08-6.9,16.62-16.92,27.77-19.37,10.15-2.23,21.2,3.08,26.77,11.85,5.57,8.77,5.9,20.33,1.93,29.94s-11.87,17.28-21.07,22.13c-3.53,1.86-7.41,3.37-11.41,3.18s-8.09-2.45-9.46-6.2c-1.53-4.19.69-8.94,3.95-11.99s7.42-4.91,11.16-7.33,7.31-5.77,8.14-10.15-2.35-9.62-6.81-9.44c-2.02.08-3.85,1.2-5.47,2.43-6.65,5.05-11.42,12.46-18.69,16.57-11.66,6.6-28.06,1.98-35.2-9.36-14.71-23.35,10.32-48.15,32.24-52.73,1.58-.33,3.45-.51,4.62.61.78.75,1.03,1.88,1.19,2.95.92,6.2.06,12.65-2.43,18.39Z"/>
    <path class="cls-1" d="M71.16,679.76c9.06,3.26,17.07,9.42,22.35,18.78,10.18,18.08,5.09,43.28-11.32,55.98-4.59-4.6-9.18-9.2-13.77-13.8,8.65-7.74,12.52-21.39,6.78-31.49-3.95-6.95-11.78-11.2-19.74-11.97-2.73-.26-5.49-.16-8.17.4-7.38,1.54-13.94,6.77-16.92,13.7s-2.24,15.37,2.04,21.58c3.07,4.45,7.96,8.14,8.54,13.52.47,4.39-2.16,8.46-4.8,12-.61.82-1.31,1.69-2.3,1.95-.97.25-1.99-.15-2.9-.57-16.17-7.48-26.57-25.85-24.67-43.56,3.34-31.15,38.58-46,64.89-36.52Z"/>
    <path class="cls-1" d="M968.65,1072.02c-2.16,1.75-4.82,3.06-7.44,3.75-6.51,1.73-13.72,1.56-19.4,5.17-9.03,5.75-10.28,19.17-5.61,28.8,2.19,4.52,5.48,8.56,9.72,11.26,10.32,6.57,25.71,3.11,32.22-7.25,2.33-3.71,3.58-8.02,5.95-11.7,2.37-3.68,6.47-6.83,10.79-6.11,3.66.61,6.44,3.93,7.33,7.53.88,3.6.19,7.41-.95,10.95-5.76,17.87-23.65,31.11-42.42,31.39-18.78.28-37.05-12.41-43.34-30.11-10.01-28.14,11.91-61.08,41.78-62.34,6.54-.28,14.51,2.15,15.86,8.55.83,3.94-1.26,7.51-4.47,10.11Z"/>
    <path class="cls-1" d="M884.27,1130.79s-.03.09-.04.14c-11.74-7.61-29.69-2.48-35.63,10.19-5.94,12.67,1.59,29.75,14.95,33.9,13.36,4.16,29.25-5.63,31.55-19.43,6.73-.55,15.44.14,17.49,6.57.88,2.77.11,5.78-.94,8.48-6.76,17.45-25.85,29.15-44.5,27.56-18.64-1.59-35.38-16.13-39.86-34.3-7.8-31.65,23.84-68.83,56.99-56.77,3.56,1.29,7.3,3.6,8,7.32,1.15,6.12-6.34,10.34-8.03,16.33Z"/>
    <path class="cls-1" d="M144.67,868.98c.1.18.2.36.3.54,8.67,15.54,17.33,31.08,26,46.61.64,1.15,1.31,2.4,1.17,3.72-.21,2.04-2.19,3.36-3.97,4.37-4.89,2.79-11.58,5.38-15.61,1.45-3.65-3.56-2.52-10.48-6.66-13.45-3.52-2.53-8.39-.5-12.2,1.56-16.68,9.02-33.35,18.04-50.03,27.06-4.83-4.54-10.11-10.49-8.43-16.91,1.43-5.46,7.23-8.34,12.37-10.66,13.25-5.97,26.16-12.68,38.66-20.09,1.65-.98,3.39-2.07,4.19-3.82,1.79-3.94-2.05-7.9-4.24-11.63-5.08-8.63,3.39-23.25,13.41-15.39,2.2,1.73,3.67,4.18,5.04,6.63Z"/>
    <path class="cls-1" d="M1230.77,739.74c-1.24,6.61-2.49,13.21-3.73,19.82-.95,5.07-2.6,10.99-7.47,12.69-2.2.77-4.61.47-6.91.15-21.07-2.94-42.04-6.55-62.88-10.83-4.2-.86-8.59-1.85-11.82-4.67-11.47-10.04,5.71-19.58,14.92-19,6.42.41,12.51,2.87,18.64,4.84,10.44,3.35,21.32,5.34,32.27,5.89,1.25.06,2.58.09,3.67-.55,1.89-1.11,2.2-3.65,2.38-5.83.78-9.5,2.93-18.9,6.37-27.79.34-.89.74-1.82,1.54-2.34.92-.59,2.11-.47,3.2-.33,3.57.47,7.14.95,10.71,1.42.98.13,2.05.3,2.72,1.03.91.98.72,2.51.47,3.82-1.36,7.23-2.72,14.45-4.08,21.68Z"/>
    <path class="cls-1" d="M1159.74,907.72c3.75,2.05,7.51,4.1,11.26,6.15-2.04,7.56-4.48,15.01-7.31,22.31-18.39-12.17-37.97-22.55-58.37-30.93-5.74-2.36-11.78-4.72-15.88-9.37-7.05-7.99-3.28-21.97,8.88-20.22,3.6.52,6.87,2.29,10.06,4.03,17.12,9.35,34.24,18.69,51.36,28.04Z"/>
    <path class="cls-1" d="M336.81,1080.18c.89,1.03,1.56,2.25,1.72,3.59.28,2.34-1.01,4.55-2.25,6.55-10.74,17.33-21.47,34.65-32.21,51.98-3.48,5.61-7.35,11.57-13.48,14.05-6.12,2.48-14.87-.8-15.27-7.39-.2-3.3,1.66-6.33,3.45-9.11,9.07-14.04,18.29-27.99,27.65-41.83,6.49-9.6,14.91-30.93,29.07-19.12.47.39.91.82,1.32,1.28Z"/>
    <g>
      <path class="cls-1" d="M1113.15,232.45c.08,0,.17-.01.25-.01,3.16-.09,5.52,2.77,7.35,5.35,6.51,9.14,13.01,18.29,19.52,27.43,5.67,7.97,11.46,16.19,13.83,25.69,2.76,11.08.37,23.34-6.35,32.57-6.72,9.23-17.65,15.27-29.05,16.05-1.98.13-4.11.08-5.78-.99-1.15-.74-1.99-1.91-3.18-2.6-2.26-1.31-5.26-.49-7.22,1.23s-3.11,4.16-4.21,6.52c-5.36,11.51-10.71,23.03-16.07,34.54-5.87-4.07-11.8-8.29-16.1-13.99s-6.8-13.2-4.92-20.1c1.65-6.04,6.31-10.74,9.1-16.34,2.79-5.6,2.9-13.75-2.58-16.77-3.92-2.16-8.9-.61-12.57,1.95s-6.67,6.03-10.54,8.26c-1.66.96-3.62,1.68-5.48,1.21-1.58-.4-2.82-1.59-3.92-2.78-4.39-4.77-13.54-16.51-11.45-23.64,2.21-7.54,18.98-15.36,25.19-19.78,19.68-14.03,39.48-27.9,59.4-41.6,1.46-1,3.03-2.04,4.78-2.18ZM1109.24,279.18c-.79-.43-1.65-.73-2.57-.84-2.45-.29-4.89.88-6.67,2.58-5.03,4.77-6.86,12.12-2.49,17.95,2.52,3.35,6.25,5.56,9.98,7.46,1.24.63,2.55,1.26,3.94,1.19,1.68-.08,3.12-1.14,4.46-2.16,1.41-1.08,2.82-2.15,4.23-3.23.7-.54,1.44-1.11,1.74-1.94.4-1.07-.03-2.26-.47-3.31-1.92-4.53-4.35-8.86-7.22-12.86-1.34-1.88-2.95-3.78-4.93-4.85Z"/>
      <path class="cls-1" d="M1210.12,393c7.68,17.6,14.49,35.58,20.37,53.86.28.88.56,1.86.21,2.72-.43,1.06-1.64,1.53-2.72,1.9-5.66,1.9-11.32,3.8-16.98,5.71-1.94.65-4.1,1.3-5.99.49-1.66-.71-2.68-2.37-3.51-3.97-6.76-13-8.65-28.54-17.7-40.07-.88-1.12-1.92-2.25-3.3-2.56-2.31-.51-4.53,1.6-5.03,3.91s.24,4.69.96,6.94c4.26,13.18,8.52,26.36,12.77,39.54-7.91-.16-14,9.39-21.8,8.06-5.58-.95-8.59-6.93-10.74-12.17-3.56-8.7-7.11-17.41-10.67-26.11-.81-1.99-1.85-4.21-3.89-4.9-2.65-.9-5.51,1.51-6.15,4.24s.27,5.56,1.17,8.21c4.68,13.84,9.36,27.68,14.03,41.52-6.38,2.76-12.77,5.51-19.15,8.27-2.09.9-4.52,1.8-6.54.75-1.49-.77-2.29-2.4-2.99-3.92-5.13-11.18-9.71-22.61-13.73-34.24-3.87-11.22-8.96-27.33-2.89-38.75,5.42-10.2,19.93-17.16,30.09-21.23,11.73-4.69,24.12-7.46,36.23-11.04,10.26-3.04,22.61-6.27,30.62.83,3.15,2.79,4.97,6.74,6.66,10.59.21.49.43.97.64,1.46Z"/>
      <path class="cls-1" d="M810.51,27.67c.79.5,1.51,1.09,2.09,1.82,3.02,3.74,1.35,9.24-.39,13.71-7.73,19.85-14.41,40.1-20.03,60.64-.49,1.78-.91,3.84.18,5.33.77,1.03,2.08,1.48,3.3,1.86,12.33,3.88,24.65,7.77,36.98,11.65,1.43.45,2.97.97,3.84,2.2,1.25,1.75.65,4.17,0,6.22-2.36,7.48-4.72,14.96-7.09,22.44-19.49-3.96-38.56-10-56.79-17.98-5.92-2.59-12.1-5.7-15.35-11.28-8.14-13.97,3.65-34.23,8.57-47.36,6.68-17.83,13.36-35.66,20.04-53.49.36-.95.78-1.99,1.69-2.46.82-.43,1.8-.28,2.71-.1,5.91,1.15,11.7,2.93,17.24,5.3,1.02.44,2.06.91,2.99,1.51Z"/>
      <path class="cls-1" d="M938.49,82.12c.44.13.88.26,1.32.39-15.38,34.29-32.8,67.67-52.15,99.89-.52.86-1.13,1.8-2.09,2.08-1,.29-2.05-.21-2.97-.7-5.8-3.08-11.6-6.16-17.41-9.23-1.91-1.01-3.89-2.08-5.18-3.83-3.81-5.17,4.6-15.3,6.98-19.81,4.63-8.75,9.25-17.5,13.88-26.26,9.03-17.09,18.07-34.18,27.1-51.26,1.09-2.06,2.57-4.39,4.9-4.53,1.77-.11,3.3,1.13,4.69,2.24,6.19,4.96,13.33,8.72,20.92,11.03Z"/>
      <g>
        <path class="cls-1" d="M1016.94,172c-1.26-1.39-2.64-2.66-4.12-3.82-2.01-1.57-4.34-2.95-6.89-3.04-11.27-.42-4.9,14.95-.71,18.95,2.72,2.59,6.13,4.78,9.88,4.78s7.64-2.92,7.58-6.67c-.03-1.66-.78-3.21-1.62-4.64-1.18-1.99-2.56-3.86-4.12-5.56Z"/>
        <path class="cls-1" d="M1055.69,186.3c.11-12.03-7.02-22.93-15.18-31.76-10.42-11.25-22.84-20.42-35.18-29.51-.31-.22-.62-.45-.94-.67-1.21-.86-2.49-1.62-3.94-1.86-3.94-.66-7.33,2.62-9.97,5.61-15.29,17.33-30.58,34.65-45.87,51.97-5.05,5.73-18.81,16.5-19.76,23.99-.97,7.6,9.13,14.23,14.2,18.01,8.38,6.27,15.87,13.65,24.24,19.93,8.36,6.28,17.91,11.53,28.32,12.6,10.41,1.08,21.77-2.75,27.58-11.45,4.93-7.38,5.22-16.84,5.1-25.72,16.24-.71,31.26-14.88,31.4-31.14ZM992.24,223.18c-2.45,1.49-5.61.36-8.14-.99-4.93-2.65-9.41-6.13-13.21-10.25-1.03-1.12-1.64-2.14-1.92-3.09-1.09-3.71,2.73-6.44,5.71-10.19.19-.24.41-.49.71-.53.26-.03.5.1.72.24,5.44,3.25,10.39,7.33,14.6,12.06,1.63,1.83,3.2,3.85,3.77,6.24.56,2.39-.15,5.24-2.25,6.51ZM1015.1,188.87c-3.75,0-7.16-2.19-9.88-4.78-4.19-4-10.56-19.37.71-18.95,2.55.09,4.88,1.47,6.89,3.04,1.48,1.16,2.86,2.43,4.12,3.82,1.56,1.7,2.94,3.57,4.12,5.56.84,1.43,1.59,2.98,1.62,4.64.06,3.75-3.83,6.67-7.58,6.67Z"/>
      </g>
    </g>
  </g>
  <g id="Capa_2" data-name="Capa 2">
    <path class="cls-10" d="M607.24,511.07c-.03-96.29-.05-192.58-.08-288.87,0-6.07-.31-12.9-4.78-17.01-3.94-3.64-9.84-3.92-15.21-3.9-76.81.39-153.07,25.17-216.15,68.85-64.06,44.36-113.14,105.6-145.08,176.61-19.9,44.24-32.9,91.61-37.95,139.87-.93,8.86-1.32,18.72,4.24,25.68,6.66,8.34,18.86,9.04,29.53,9.04,118.63.05,237.26.1,355.89.16,10.04,0,21.95-1.01,27-9.68,2.55-4.38,2.62-9.72,2.62-14.79,0-28.65-.02-57.3-.02-85.95Z"/>
    <path class="cls-4" d="M497.04,650.08c-96.29.03-192.58.05-288.87.08-6.07,0-12.9.31-17.01,4.78-3.64,3.94-3.92,9.84-3.9,15.21.39,76.81,25.17,153.07,68.85,216.15,44.36,64.06,105.6,113.14,176.61,145.08,44.24,19.9,91.61,32.9,139.87,37.95,8.86.93,18.72,1.32,25.68-4.24,8.34-6.66,9.04-18.86,9.04-29.53.05-118.63.1-237.26.16-355.89,0-10.04-1.01-21.95-9.68-27-4.38-2.55-9.72-2.62-14.79-2.62-28.65,0-57.3.02-85.95.02Z"/>
    <path class="cls-5" d="M635.42,760.29c.03,96.29.05,192.58.08,288.87,0,6.07.31,12.9,4.78,17.01,3.94,3.64,9.84,3.92,15.21,3.9,76.81-.39,153.07-25.17,216.15-68.85,64.06-44.36,113.14-105.6,145.08-176.61,19.9-44.24,32.9-91.61,37.95-139.87.93-8.86,1.32-18.72-4.24-25.68-6.66-8.34-18.86-9.04-29.53-9.04-118.63-.05-237.26-.1-355.89-.16-10.04,0-21.95,1.01-27,9.68-2.55,4.38-2.62,9.72-2.62,14.79,0,28.65.02,57.3.02,85.95Z"/>
    <path class="cls-8" d="M745.62,621.28c96.29-.03,192.58-.05,288.87-.08,6.07,0,12.9-.31,17.01-4.78,3.64-3.94,3.92-9.84,3.9-15.21-.39-76.81-25.17-153.07-68.85-216.15-44.36-64.06-105.6-113.14-176.61-145.08-44.24-19.9-91.61-32.9-139.87-37.95-8.86-.93-18.72-1.32-25.68,4.24-8.34,6.66-9.04,18.86-9.04,29.53-.05,118.63-.1,237.26-.16,355.89,0,10.04,1.01,21.95,9.68,27,4.38,2.55,9.72,2.62,14.79,2.62,28.65,0,57.3-.02,85.95-.02Z"/>
  </g>
  <g id="Capa_3" data-name="Capa 3">
    <path class="cls-2" d="M376.69,466.63c.75-1.14,1.32-2.41,1.72-3.7,1.07-3.48,1.11-7.18,1.52-10.8,1.75-15.5,10.9-29.99,24.14-38.24,13.24-8.24,30.28-10.06,44.96-4.79-1.71,5.4-8.95,8.67-8.39,14.31.23,2.31,1.81,4.26,3.57,5.77,7.2,6.17,17.63,6.92,27.01,5.59,6.77-.96,13.63-2.98,18.8-7.46,10.28-8.9,10.95-24.71,7.93-37.96-1.77-7.78-4.93-15.86-11.57-20.29-3.12-2.08-7.71-3.02-10.37-.38-1.1,1.09-1.66,2.61-2.18,4.07-1.31,3.65-2.62,7.3-3.93,10.95,1.1-3.08-35.49-6.26-38.69-6.1-13.87.72-27.61,4.39-39.94,10.8-25.1,13.07-40.72,40.21-39.66,68.63.13,3.41.59,7.05,2.87,9.59,2.44,2.72,6.34,3.49,9.95,4.09,2.33.38,4.77.76,7.03.08,2.2-.65,3.95-2.22,5.22-4.16Z"/>
    <path class="cls-2" d="M488.13,448.02c-.73,1.15-1.29,2.43-1.67,3.72-1.02,3.49-1.01,7.19-1.36,10.82-1.52,15.52-10.46,30.15-23.58,38.58s-30.13,10.5-44.89,5.45c1.63-5.43,8.82-8.8,8.18-14.43-.26-2.3-1.87-4.23-3.66-5.72-7.29-6.06-17.72-6.67-27.09-5.19-6.75,1.06-13.59,3.18-18.69,7.73-10.15,9.05-10.59,24.86-7.38,38.08,1.88,7.76,5.16,15.79,11.86,20.12,3.15,2.03,7.75,2.91,10.37.23,1.09-1.11,1.62-2.63,2.13-4.1,1.26-3.67,2.52-7.34,3.77-11-1.06,3.09,35.57,5.75,38.77,5.54,13.86-.92,27.54-4.79,39.77-11.38,24.91-13.43,40.13-40.8,38.66-69.2-.18-3.4-.69-7.04-3-9.55-2.48-2.69-6.39-3.4-10.01-3.94-2.34-.35-4.78-.69-7.03.02-2.19.68-3.92,2.28-5.16,4.24Z"/>
    <path class="cls-3" d="M794.77,413.89c-7.59-2.79-14.03-8.58-21.24-12.52-10.78-5.9-23.77-7.64-35.73-4.79-30.1,7.18-46.82,41.88-36.64,70.55,5.85,16.47,21.02,29.6,38.37,31.73,9.6,1.18,19.47-.89,28.12-5.2,3-1.5,6.32-3.31,9.52-2.29,1.79.57,3.19,1.96,4.51,3.29,3,3.04,6.01,6.07,9.01,9.11,2.04,2.06,4.18,4.3,4.72,7.15.54,2.82-.59,5.64-1.35,8.41-4.44,16.27,5.74,34.99,21.66,40.56s35.25-2.4,43.06-17.35c7.81-14.95,3.57-35.01-9.3-45.91-1.2-1.01-2.53-2.08-2.86-3.61-.27-1.23.19-2.5.64-3.68,4.98-13.07,9.97-26.13,14.95-39.2.7-1.84,1.47-3.77,3-5.01,2.01-1.62,4.81-1.67,7.38-1.9,13.08-1.19,25.39-9.86,30.26-22.06s1.68-27.37-8.15-36.07c-5.62-4.97-12.94-7.73-20.35-8.92-8.95-1.44-18.7-.57-26.09,4.68-7.61,5.4-11.69,14.83-12.22,24.15-.1,1.71-.16,3.6-1.34,4.84-.95.99-2.39,1.31-3.74,1.57-4.91.95-9.83,1.86-14.75,2.74-5.68,1.02-11.52,1.99-17.18.91-1.46-.28-2.87-.68-4.25-1.19Z"/>
    <path class="cls-9" d="M756.42,475.32c8.44-2.74,15.57-9.77,17.74-18.42.96-3.83,1.03-7.83.78-11.77-.33-5.16-1.3-10.48-4.31-14.68-3.1-4.34-8.15-7.05-13.39-8.05s-10.68-.4-15.85.9c-14.15,3.56-19.66,15.58-18.31,29.74,1.14,12.08,11.81,22.55,23.91,23.46,3.2.24,6.4-.19,9.43-1.18Z"/>
    <path class="cls-12" d="M828.95,538.73c.6-.15,1.19-.33,1.78-.53,2.41-.8,4.79-1.85,6.68-3.54,5.08-4.54,5.1-13.4.38-18.33-10.25-10.69-26.62-.7-22.52,13.24,1.34,4.55,4.74,9,9.46,9.54,1.42.16,2.84-.03,4.22-.39Z"/>
    <polygon class="cls-11" points="794.95 473.18 812.77 497.97 843.18 428.11 810.58 431.41 794.95 473.18"/>
    <path class="cls-7" d="M874.28,419.95c4.25-1.73,7.62-5.67,8.39-10.21.97-5.75-2.31-11.96-7.61-14.4-11.25-5.17-19.3,5.24-16.73,15.82.86,3.53,2.95,6.92,6.19,8.57,1.9.97,4.1,1.3,6.23,1.09,1.22-.12,2.41-.42,3.53-.88Z"/>
    <path class="cls-2" d="M317.63,877.67c4.17.88,8.52.89,12.81.9,61.11.07,122.22.13,183.34.2,8.13,0,17.68-.71,22.08-7.55,4.65-7.24.65-16.72-3.39-24.32-20.51-38.65-41.02-77.3-61.54-115.95-2.04-3.84-4.15-7.77-7.44-10.6-6.96-5.99-18.76-5.09-24.73,1.89-1.83,2.14-3.11,4.68-4.38,7.19-7.71,15.31-15.43,30.62-23.14,45.93-6.3-10.82-12.61-21.65-18.91-32.47-1.06-1.82-2.15-3.68-3.76-5.04-13.35-11.31-27.33,10.72-32.31,19.86-16.04,29.49-32.08,58.98-48.12,88.47-3.57,6.56-7.23,14.21-4.54,21.18,1.86,4.82,6.52,8.13,11.46,9.67.85.26,1.7.48,2.57.66Z"/>
    <polygon class="cls-6" points="344.49 846.01 379.98 784.13 408.97 824.51 452.28 761.99 495.92 846.01 344.49 846.01"/>
    <path class="cls-2" d="M785.61,867.47c11.04,11.14,27.77,14.38,43.46,15.37,12.63.79,25.79.4,37.18-5.12,11.91-5.77,20.6-16.52,27.86-27.57,10.9-16.58,19.55-34.64,25.64-53.52,3.38-10.49,5.99-21.56,4.41-32.46-2.26-15.64-13.63-29.52-28.35-35.27-11.16-4.36-23.52-4.26-35.46-3.34-27.73,2.14-63.57,8.55-84.1,29.2-19.59,19.7-25.79,52.19-16.23,77.96.49,1.31,1.02,2.73.64,4.07-.28.98-1,1.76-1.72,2.48-9.76,9.74-24.35,16.57-27.26,30.04-.55,2.56-.59,5.33.53,7.7,1.27,2.68,3.88,4.51,6.58,5.73,7.94,3.57,17.34,2.82,25.39-.5s14.9-8.99,21.05-15.15c.13.13.25.26.38.39Z"/>
    <path class="cls-5" d="M812.21,848.46c13.8,4.27,29.39,3.75,41.04-4.52,4.29-3.05,7.87-6.99,11.1-11.15,8.6-11.08,14.9-23.75,20.49-36.61,2.65-6.08,5.18-12.36,5.52-18.98.34-6.62-1.9-13.72-7.23-17.66-5.34-3.95-12.52-4.02-19.15-3.71-12.88.61-25.85,2.08-38.01,6.36-20.44,7.18-50.79,31.21-36.74,55.94,5.81-3.48,10.66-8.48,16.72-11.51s14.28-3.52,18.87,1.47c3.84,4.18,3.77,10.52,3.48,16.2-.09,1.67-.19,3.4-.95,4.9-.82,1.61-2.31,2.76-3.76,3.86-5.81,4.4-11.62,8.8-17.43,13.2,1.96.84,3.99,1.59,6.05,2.23Z"/>
  </g>
</svg>