<?xml version="1.0" encoding="UTF-8"?>
<svg id="Capa_1" data-name="Capa 1" xmlns="http://www.w3.org/2000/svg" viewBox="0 0 1217.94 1218.82">
  <defs>
    <style>
      .cls-1 {
        fill: #bf2d61;
      }

      .cls-2 {
        fill: #1c8d42;
      }

      .cls-3 {
        fill: #bf2d5f;
      }

      .cls-4 {
        fill: #d88d3a;
      }

      .cls-5 {
        fill: #d78c3a;
      }

      .cls-6 {
        fill: #d78a39;
      }

      .cls-7 {
        fill: #004264;
      }

      .cls-8, .cls-9 {
        fill: #fff;
        stroke: #211915;
        stroke-miterlimit: 10;
      }

      .cls-9 {
        stroke-width: .25px;
      }

      .cls-10 {
        fill: #d88c38;
      }

      .cls-11 {
        fill: #d88d3b;
      }
    </style>
  </defs>
  <g id="Capa_2" data-name="Capa 2">
    <path class="cls-7" d="M589.2,434.6c-.04-135.09-.08-270.18-.11-405.26,0-8.52-.44-18.09-6.7-23.87C576.86.37,568.58-.04,561.06,0c-107.76.54-214.74,35.31-303.23,96.59-89.87,62.23-158.73,148.15-203.54,247.76C26.37,406.41,8.14,472.87,1.04,540.57c-1.3,12.44-1.86,26.26,5.94,36.03,9.34,11.7,26.45,12.68,41.42,12.69,166.43.07,332.86.15,499.29.22,14.08,0,30.79-1.41,37.87-13.58,3.58-6.15,3.67-13.64,3.67-20.74-.01-40.19-.02-80.39-.03-120.58Z"/>
    <path class="cls-1" d="M434.6,629.62c-135.09.04-270.18.08-405.26.11-8.52,0-18.09.44-23.87,6.7C.37,641.97-.04,650.24,0,657.77c.54,107.76,35.31,214.74,96.59,303.23,62.23,89.87,148.15,158.73,247.76,203.54,62.06,27.92,128.52,46.15,196.22,53.24,12.44,1.3,26.26,1.86,36.03-5.94,11.7-9.34,12.68-26.45,12.69-41.42.07-166.43.15-332.86.22-499.29,0-14.08-1.41-30.79-13.58-37.87-6.15-3.58-13.64-3.67-20.74-3.67-40.19.01-80.39.02-120.58.03Z"/>
    <path class="cls-2" d="M628.74,784.22c.04,135.09.08,270.18.11,405.26,0,8.52.44,18.09,6.7,23.87,5.53,5.1,13.81,5.51,21.33,5.47,107.76-.54,214.74-35.32,303.23-96.59,89.87-62.23,158.73-148.15,203.54-247.76,27.92-62.06,46.15-128.52,53.24-196.22,1.3-12.44,1.86-26.26-5.94-36.03-9.34-11.7-26.45-12.68-41.42-12.69-166.43-.07-332.86-.15-499.29-.22-14.08,0-30.79,1.41-37.87,13.58-3.58,6.15-3.67,13.64-3.67,20.74.01,40.19.02,80.39.03,120.58Z"/>
    <path class="cls-5" d="M783.34,589.2c135.09-.04,270.18-.08,405.26-.11,8.52,0,18.09-.44,23.87-6.7,5.1-5.53,5.51-13.81,5.47-21.33-.54-107.76-35.31-214.74-96.59-303.23-62.23-89.87-148.15-158.73-247.76-203.54-62.06-27.92-128.52-46.15-196.22-53.24-12.44-1.3-26.26-1.86-36.03,5.94-11.7,9.34-12.68,26.45-12.69,41.42-.07,166.43-.15,332.86-.22,499.29,0,14.08,1.41,30.79,13.58,37.87,6.15,3.58,13.64,3.67,20.74,3.67,40.19-.01,80.39-.02,120.58-.03Z"/>
  </g>
  <g id="Capa_3" data-name="Capa 3">
    <path class="cls-8" d="M265.77,372.25c1.05-1.6,1.85-3.38,2.41-5.19,1.51-4.88,1.56-10.07,2.13-15.15,2.45-21.74,15.29-42.08,33.86-53.64,18.57-11.57,42.49-14.11,63.08-6.73-2.4,7.58-12.55,12.16-11.77,20.08.32,3.24,2.54,5.98,5.01,8.09,10.11,8.65,24.73,9.71,37.9,7.84,9.49-1.35,19.13-4.18,26.38-10.46,14.42-12.49,15.36-34.66,11.13-53.26-2.49-10.92-6.91-22.25-16.22-28.47-4.38-2.92-10.81-4.24-14.54-.53-1.55,1.53-2.33,3.66-3.07,5.71-1.84,5.12-3.68,10.24-5.52,15.36,1.55-4.31-49.78-8.79-54.28-8.55-19.46,1.01-38.74,6.15-56.03,15.16-35.21,18.34-57.13,56.41-55.64,96.28.18,4.78.83,9.9,4.02,13.46,3.43,3.82,8.89,4.9,13.95,5.73,3.28.54,6.69,1.06,9.87.12,3.08-.92,5.55-3.12,7.33-5.84Z"/>
    <path class="cls-8" d="M422.11,346.14c-1.02,1.62-1.8,3.41-2.34,5.22-1.44,4.9-1.41,10.09-1.91,15.18-2.14,21.77-14.68,42.29-33.08,54.13-18.4,11.83-42.28,14.73-62.97,7.64,2.29-7.62,12.37-12.34,11.48-20.25-.37-3.23-2.63-5.94-5.13-8.02-10.23-8.51-24.87-9.36-38.01-7.29-9.47,1.49-19.06,4.46-26.22,10.84-14.24,12.69-14.86,34.88-10.35,53.42,2.64,10.88,7.23,22.15,16.64,28.23,4.42,2.85,10.87,4.08,14.55.32,1.52-1.56,2.28-3.69,2.98-5.75,1.76-5.15,3.53-10.29,5.29-15.44-1.49,4.34,49.9,8.06,54.39,7.77,19.44-1.29,38.64-6.71,55.8-15.97,34.95-18.85,56.3-57.23,54.24-97.08-.25-4.77-.97-9.88-4.22-13.4-3.48-3.77-8.96-4.77-14.04-5.53-3.28-.49-6.7-.96-9.87.03-3.07.96-5.5,3.2-7.24,5.94Z"/>
    <path class="cls-9" d="M852.3,298.26c-10.65-3.91-19.68-12.03-29.8-17.57-15.13-8.28-33.35-10.72-50.12-6.72-42.23,10.07-65.68,58.76-51.4,98.98,8.2,23.11,29.5,41.53,53.83,44.52,13.47,1.65,27.31-1.25,39.45-7.3,4.21-2.1,8.87-4.64,13.35-3.21,2.51.8,4.47,2.74,6.33,4.62,4.21,4.26,8.43,8.52,12.64,12.78,2.86,2.89,5.86,6.04,6.62,10.04.75,3.95-.83,7.92-1.89,11.8-6.23,22.83,8.05,49.09,30.39,56.9,22.34,7.81,49.45-3.37,60.4-24.34,10.96-20.97,5.01-49.12-13.05-64.41-1.68-1.42-3.55-2.91-4.02-5.06-.37-1.73.27-3.5.9-5.16,6.99-18.33,13.98-36.66,20.98-54.99.99-2.59,2.06-5.3,4.21-7.03,2.82-2.27,6.75-2.34,10.35-2.67,18.35-1.67,35.62-13.83,42.46-30.95s2.36-38.39-11.44-50.61c-7.89-6.98-18.16-10.84-28.55-12.52-12.56-2.02-26.24-.8-36.61,6.57-10.67,7.58-16.4,20.81-17.14,33.88-.14,2.4-.22,5.05-1.88,6.79-1.33,1.4-3.35,1.83-5.25,2.2-6.89,1.33-13.79,2.61-20.69,3.85-7.97,1.43-16.16,2.8-24.11,1.28-2.05-.39-4.03-.96-5.96-1.67Z"/>
    <path class="cls-6" d="M798.49,384.44c11.84-3.85,21.84-13.7,24.88-25.85,1.35-5.37,1.45-10.99,1.09-16.52-.47-7.24-1.83-14.7-6.05-20.6-4.35-6.09-11.43-9.89-18.78-11.29-7.35-1.4-14.98-.56-22.24,1.26-19.86,4.99-27.57,21.85-25.69,41.72,1.61,16.95,16.57,31.64,33.55,32.92,4.49.34,8.98-.27,13.24-1.65Z"/>
    <path class="cls-11" d="M900.24,473.4c.84-.21,1.67-.47,2.49-.74,3.38-1.12,6.71-2.59,9.37-4.97,7.13-6.38,7.16-18.8.54-25.71-14.37-14.99-37.34-.98-31.59,18.57,1.88,6.39,6.65,12.62,13.27,13.39,1.99.23,3.98-.05,5.93-.54Z"/>
    <polygon class="cls-10" points="852.54 381.43 877.55 416.21 920.21 318.22 874.47 322.84 852.54 381.43"/>
    <path class="cls-4" d="M963.84,306.77c5.96-2.42,10.69-7.95,11.77-14.33,1.37-8.07-3.24-16.78-10.67-20.2-15.78-7.25-27.08,7.35-23.47,22.19,1.21,4.96,4.14,9.71,8.68,12.03,2.67,1.36,5.76,1.82,8.74,1.53,1.71-.16,3.37-.59,4.95-1.23Z"/>
    <path class="cls-8" d="M182.91,948.9c5.86,1.23,11.96,1.25,17.97,1.26,85.73.09,171.47.19,257.2.28,11.41.01,24.81-1,30.97-10.6,6.53-10.16.91-23.45-4.75-34.12-28.78-54.22-57.55-108.45-86.33-162.67-2.86-5.38-5.82-10.9-10.44-14.88-9.77-8.41-26.31-7.15-34.69,2.65-2.57,3-4.37,6.57-6.15,10.09-10.82,21.48-21.64,42.95-32.47,64.43-8.84-15.18-17.69-30.37-26.53-45.55-1.49-2.55-3.02-5.16-5.27-7.07-18.73-15.86-38.35,15.04-45.32,27.87-22.5,41.37-45,82.74-67.5,124.11-5,9.2-10.14,19.94-6.37,29.71,2.62,6.77,9.15,11.41,16.07,13.57,1.19.37,2.39.68,3.6.93Z"/>
    <polygon class="cls-3" points="220.59 904.48 270.39 817.68 311.05 874.33 371.81 786.61 433.03 904.48 220.59 904.48"/>
    <path class="cls-8" d="M839.44,934.6c15.49,15.62,38.96,20.17,60.97,21.56,17.72,1.12,36.19.56,52.16-7.18,16.7-8.09,28.89-23.17,39.09-38.68,15.3-23.26,27.43-48.59,35.97-75.09,4.74-14.71,8.4-30.25,6.19-45.55-3.17-21.95-19.11-41.41-39.77-49.48-15.65-6.11-33-5.97-49.75-4.68-38.9,3-89.19,12-117.98,40.96s-36.18,73.22-22.78,109.38c.68,1.84,1.43,3.83.89,5.72-.39,1.37-1.4,2.47-2.41,3.48-13.69,13.66-34.16,23.24-38.25,42.15-.78,3.59-.83,7.48.74,10.8,1.79,3.76,5.44,6.32,9.24,8.03,11.13,5.01,24.33,3.96,35.61-.7s20.91-12.62,29.53-21.26c.18.18.35.36.53.54Z"/>
    <path class="cls-2" d="M876.77,907.92c19.36,5.99,41.23,5.26,57.58-6.34,6.02-4.27,11.04-9.81,15.57-15.64,12.07-15.54,20.9-33.33,28.75-51.36,3.71-8.52,7.27-17.35,7.75-26.63.47-9.29-2.67-19.25-10.14-24.78-7.49-5.54-17.57-5.64-26.87-5.21-18.07.85-36.26,2.92-53.33,8.92-28.67,10.07-71.25,43.79-51.54,78.48,8.15-4.89,14.96-11.9,23.46-16.15,8.5-4.25,20.04-4.93,26.47,2.06,5.39,5.87,5.3,14.77,4.88,22.72-.12,2.35-.27,4.77-1.33,6.87-1.15,2.27-3.24,3.88-5.27,5.41-8.15,6.17-16.3,12.35-24.45,18.52,2.75,1.18,5.59,2.23,8.49,3.12Z"/>
  </g>
</svg>